<?xml version="1.0" encoding="UTF-8"?><svg xmlns="http://www.w3.org/2000/svg" xmlns:xlink="http://www.w3.org/1999/xlink" version="1.1" id="Layer_1" x="0px" y="0px" viewBox="0 0 503 170" style="enable-background:new 0 0 503 170;" xml:space="preserve"><style type="text/css">.st0{fill:#C40808;}</style><g><path d="M41.8,37.7L41.8,37.7c2.8,0,5,2.3,5,5v85.2c0,2.8-2.3,5-5,5l0,0c-2.8,0-5-2.3-5-5V42.7C36.8,39.9,39,37.7,41.8,37.7z"/><path d="M130.4,37.7L130.4,37.7c2.8,0,5,2.3,5,5v85.2c0,2.8-2.3,5-5,5h0c-2.8,0-5-2.3-5-5V42.7C125.4,39.9,127.7,37.7,130.4,37.7z"/><path d="M86.1,20.3L86.1,20.3c2.8,0,5,2.3,5,5v120c0,2.8-2.3,5-5,5l0,0c-2.8,0-5-2.3-5-5v-120C81.1,22.5,83.3,20.3,86.1,20.3z"/><rect x="9.5" y="80.1" class="st0" width="153.1" height="10.5"/><rect x="183" y="72" class="st0" width="137" height="2"/><path d="M200.9,28.9c2.4-0.1,4.7,0.3,7,1.1c1.9,0.7,3.7,1.8,5.3,3.1l-3.6,4.2c-1.2-1-2.5-1.8-3.9-2.3c-1.4-0.5-2.9-0.7-4.4-0.7 c-2,0-3.9,0.5-5.6,1.5c-1.9,1.2-3.3,2.9-4.1,5c-1.1,2.9-1.7,6.1-1.5,9.2c-0.1,3.1,0.4,6.2,1.5,9.1c0.8,2,2.2,3.8,4,5 c1.7,1,3.7,1.6,5.8,1.6c1.9,0.1,3.7-0.3,5.4-1.1c1.4-0.7,2.6-1.5,3.8-2.4l3.3,4.2c-1.5,1.4-3.3,2.6-5.2,3.4c-2.4,1-5,1.5-7.6,1.5 c-3.3,0-6.5-0.8-9.3-2.4c-2.8-1.7-5.1-4.2-6.5-7.2c-1.7-3.6-2.5-7.6-2.3-11.6c-0.1-4,0.7-8,2.4-11.5 C188.2,32.5,194.3,28.8,200.9,28.9L200.9,28.9z"/><path d="M244.3,62.8c-0.1,0.9,0.1,1.8,0.6,2.7c0.4,0.6,1.1,1.1,1.8,1.3l-1.5,4.5c-1.4-0.1-2.8-0.6-4-1.3c-1.1-0.7-2-1.8-2.5-3 c-1.1,1.4-2.6,2.6-4.3,3.2c-1.8,0.7-3.7,1.1-5.6,1.1c-2.8,0.1-5.4-0.8-7.5-2.7c-1.9-1.8-2.9-4.4-2.8-7c-0.1-3,1.4-5.9,3.9-7.6 c2.6-1.8,6.2-2.7,11-2.7h4.5v-2c0.2-1.7-0.5-3.3-1.8-4.4c-1.5-1-3.3-1.4-5.1-1.3c-1.2,0-2.5,0.2-3.7,0.4c-1.6,0.3-3.1,0.7-4.6,1.2 l-1.6-4.7c1.8-0.7,3.8-1.2,5.7-1.6c1.7-0.3,3.4-0.5,5.2-0.5c4.2,0,7.3,0.9,9.3,2.8c2.1,2,3.2,4.8,3.1,7.7V62.8z M230.8,66.3 c1.4,0,2.7-0.4,3.9-1.1c1.3-0.7,2.3-1.7,3.1-3v-6.9h-3.7c-3.1,0-5.3,0.5-6.7,1.5c-2.4,2.1-2.7,5.6-0.7,8.1 C227.9,66,229.3,66.5,230.8,66.3L230.8,66.3z"/><path d="M282.1,35.3l1.8,5.5c-1.3,0.4-2.7,0.7-4.1,0.8c-1.5,0.1-3.1,0.2-5,0.2c1.7,0.7,3.1,1.7,4.2,3.2c1,1.4,1.5,3,1.4,4.7 c0.1,1.9-0.4,3.8-1.4,5.4c-1,1.6-2.5,2.9-4.2,3.8c-2.1,0.9-4.3,1.4-6.6,1.3c-0.8,0-1.6,0-2.3-0.1c-0.7-0.1-1.3-0.2-1.9-0.4 c-0.4,0.3-0.8,0.7-1,1.1c-0.3,0.4-0.4,0.9-0.4,1.5c0,0.6,0.3,1.2,0.8,1.6c0.9,0.6,2,0.8,3.1,0.7h5.4c2,0,4,0.3,5.9,1.1 c1.6,0.7,3,1.7,4,3.1c1,1.3,1.5,2.8,1.5,4.4c0.1,3-1.4,5.7-4,7.2c-2.7,1.7-6.5,2.6-11.6,2.6c-2.8,0.1-5.7-0.3-8.4-1.1 c-1.8-0.5-3.3-1.7-4.2-3.2c-0.9-1.6-1.3-3.4-1.2-5.3h5.9c0,0.9,0.2,1.9,0.6,2.7c0.6,0.8,1.4,1.4,2.4,1.6c1.6,0.4,3.3,0.6,5,0.5 c1.8,0.1,3.5-0.1,5.2-0.6c1.1-0.2,2-0.8,2.8-1.6c0.6-0.7,0.9-1.5,0.9-2.4c0-1.2-0.6-2.3-1.6-2.9c-1.4-0.7-2.9-1.1-4.4-1h-5.3 c-3,0-5.1-0.6-6.5-1.8c-1.3-1-2-2.6-2-4.2c0-1.1,0.3-2.2,0.9-3.1c0.7-1,1.5-1.9,2.6-2.6c-1.7-0.8-3.1-2.1-4.2-3.6 c-0.9-1.6-1.3-3.3-1.3-5.1c0-2,0.5-4.1,1.6-5.8c1.2-1.7,2.8-3,4.6-3.9c2.1-1,4.4-1.4,6.8-1.4c2.1,0,4.2-0.1,6.2-0.4 c1.5-0.2,3-0.6,4.4-1.1C279.6,36.5,280.9,35.9,282.1,35.3z M267.8,43c-1.8-0.1-3.5,0.5-4.8,1.8c-1.1,1.3-1.7,3-1.6,4.7 c-0.1,1.7,0.5,3.4,1.6,4.7c1.3,1.3,3,1.9,4.8,1.8c1.7,0.1,3.3-0.5,4.5-1.7c1.1-1.4,1.7-3.1,1.5-4.9c0.1-1.7-0.4-3.4-1.5-4.8 C271.1,43.5,269.5,42.9,267.8,43z"/><path d="M296.8,57c0.1,1.8,0.5,3.6,1.4,5.2c0.7,1.3,1.7,2.3,3,3c1.3,0.7,2.7,1,4.1,1c1.4,0,2.9-0.2,4.2-0.7c1.4-0.5,2.7-1.2,3.9-2 l2.9,4c-1.5,1.2-3.3,2.2-5.1,2.8c-2,0.7-4.1,1.1-6.2,1.1c-2.9,0.1-5.7-0.6-8.2-2.1c-2.2-1.4-4-3.4-5.1-5.8 c-1.2-2.7-1.8-5.6-1.7-8.5c-0.1-2.9,0.5-5.8,1.7-8.4c1.1-2.4,2.8-4.4,4.9-5.9c4.5-2.8,10.2-2.9,14.8-0.3c2,1.3,3.6,3.2,4.6,5.4 c1.1,2.6,1.7,5.3,1.7,8.1c0,0.5,0,1.1,0,1.6s-0.1,1-0.1,1.4L296.8,57z M304.2,43.4c-1.9,0-3.8,0.8-5.1,2.2 c-1.3,1.5-2.1,3.8-2.3,6.9h14.4c0.1-2.4-0.6-4.8-1.9-6.8C308.1,44.1,306.2,43.2,304.2,43.4L304.2,43.4z"/><path d="M210.9,100.6v27.5c0.1,2.5-0.5,5-1.7,7.2c-1.1,2-2.7,3.7-4.7,4.9c-4.5,2.3-9.8,2.3-14.3,0c-2-1.1-3.6-2.8-4.6-4.9 c-1.1-2.2-1.6-4.7-1.6-7.2v-27.5h5.1v27.6c0,3.1,0.7,5.4,2.2,6.9c3.5,3.1,8.8,3.1,12.3,0c1.5-1.5,2.2-3.9,2.2-6.9v-27.6H210.9z"/><path d="M221.1,141.2v-31.1h4.2l0.4,4.3c1.3-1.6,2.9-2.9,4.7-3.7c1.7-0.8,3.6-1.3,5.5-1.3c3.1,0,5.3,0.8,6.6,2.4 c1.5,1.9,2.2,4.3,2.1,6.7v22.6h-5v-18.9c0-1.7-0.1-3.4-0.4-5.1c-0.1-1.1-0.6-2.1-1.4-2.9c-1-0.7-2.3-1-3.5-0.9 c-1.2,0-2.4,0.3-3.4,0.8c-1,0.5-2,1.2-2.9,2c-0.8,0.7-1.5,1.5-2.1,2.4v22.6L221.1,141.2z"/><path d="M275.1,97l5,0.6v43.6h-4.3l-0.5-4.1c-1,1.5-2.4,2.8-4,3.6c-1.5,0.8-3.2,1.2-4.8,1.1c-2.4,0.1-4.7-0.6-6.7-2 c-1.8-1.5-3.2-3.4-3.9-5.7c-0.9-2.7-1.3-5.6-1.3-8.4c0-2.8,0.4-5.7,1.4-8.3c0.8-2.3,2.3-4.3,4.2-5.8c1.9-1.4,4.2-2.2,6.6-2.1 c1.6,0,3.2,0.3,4.7,0.9c1.4,0.6,2.6,1.6,3.6,2.7L275.1,97z M268.1,113.5c-2.4-0.1-4.7,1-6,3c-1.4,2-2.1,5.1-2.1,9.2 c-0.1,2.3,0.2,4.5,0.9,6.7c0.4,1.6,1.3,3,2.5,4.1c1.2,0.9,2.6,1.4,4.1,1.4c1.6,0,3.2-0.5,4.5-1.5c1.2-1,2.3-2.1,3.1-3.4v-15.4 c-0.8-1.2-1.8-2.2-3.1-2.9C270.9,113.8,269.5,113.5,268.1,113.5L268.1,113.5z"/><path d="M295.8,127.4c0,2,0.5,4.1,1.4,5.9c0.7,1.4,1.9,2.6,3.3,3.4c1.4,0.7,2.9,1.1,4.4,1.1c1.5,0,2.9-0.2,4.3-0.7 c1.4-0.5,2.8-1.2,4-2.1l2.3,3.3c-3.1,2.4-6.8,3.7-10.7,3.7c-2.7,0.1-5.4-0.6-7.7-2c-2.1-1.4-3.8-3.4-4.9-5.7 c-1.2-2.7-1.7-5.5-1.7-8.4c-0.1-2.9,0.5-5.7,1.7-8.4c1-2.3,2.6-4.3,4.7-5.8c2.1-1.4,4.6-2.2,7.2-2.1c2.4-0.1,4.7,0.6,6.8,1.8 c1.9,1.3,3.4,3.1,4.4,5.3c1.1,2.6,1.6,5.3,1.5,8.1c0,0.5,0,1,0,1.5s0,0.9-0.1,1.2L295.8,127.4z M304.3,113.6 c-2.2-0.1-4.3,0.8-5.8,2.4c-1.5,1.6-2.4,4.2-2.6,7.6h16.2c-0.1-3.3-0.8-5.8-2.2-7.5C308.5,114.4,306.4,113.5,304.3,113.6z"/><path d="M345.7,97c1.5,0,3,0.1,4.5,0.4c1.3,0.3,2.6,0.7,3.9,1.2l-1.6,3.7c-1-0.4-2.1-0.8-3.2-1c-1.1-0.2-2.3-0.3-3.5-0.3 c-1.7-0.1-3.4,0.3-4.9,1.3c-1.1,1-1.7,2.4-1.6,3.9v6.3h10.5l-0.5,3.9h-10v24.8h-5v-24.7H327v-3.9h7.4v-6.2c0-1.8,0.5-3.5,1.5-5 c1-1.4,2.4-2.5,4.1-3.2C341.8,97.4,343.7,97,345.7,97z"/><path d="M378.5,112.6v24.7h8.8v3.9h-23.3v-3.9h9.6v-20.8h-9.3v-3.9H378.5z M374.5,97.8c1,0,1.9,0.3,2.6,1c0.7,0.6,1,1.5,1,2.4 c0,0.9-0.3,1.9-1,2.5c-0.7,0.7-1.7,1.1-2.6,1c-1.9,0.1-3.5-1.4-3.6-3.3c0-0.1,0-0.1,0-0.2c0-0.9,0.3-1.8,1-2.4 C372.6,98.1,373.6,97.7,374.5,97.8L374.5,97.8z"/><path d="M398.1,141.2v-31.1h4.2l0.4,4.3c1.3-1.6,2.9-2.9,4.7-3.7c1.7-0.8,3.6-1.3,5.5-1.3c3,0,5.3,0.8,6.6,2.4 c1.5,1.9,2.2,4.3,2.1,6.7v22.6h-5v-18.9c0-1.7-0.1-3.4-0.4-5.1c-0.1-1.1-0.6-2.1-1.4-2.9c-1-0.7-2.3-1-3.5-0.9 c-1.2,0-2.4,0.3-3.4,0.8c-1.1,0.5-2,1.2-2.9,2c-0.8,0.7-1.5,1.5-2.1,2.4v22.6L398.1,141.2z"/><path d="M437.4,127.4c0,2,0.5,4.1,1.4,5.9c0.7,1.4,1.9,2.6,3.3,3.4c1.4,0.7,2.9,1.1,4.4,1.1c1.5,0,2.9-0.2,4.3-0.7 c1.4-0.5,2.8-1.2,4-2.1l2.3,3.3c-1.5,1.2-3.2,2.1-5,2.7c-1.8,0.7-3.8,1-5.7,1c-2.7,0.1-5.4-0.6-7.7-2c-2.1-1.4-3.8-3.4-4.9-5.7 c-2.2-5.4-2.2-11.4,0-16.8c1-2.3,2.6-4.3,4.7-5.8c2.1-1.4,4.6-2.2,7.2-2.1c2.4-0.1,4.7,0.6,6.8,1.8c1.9,1.3,3.5,3.1,4.4,5.3 c1.1,2.6,1.6,5.3,1.5,8.1c0,0.5,0,1,0,1.5s0,0.9-0.1,1.2L437.4,127.4z M445.9,113.6c-2.2-0.1-4.3,0.8-5.8,2.4 c-1.5,1.6-2.4,4.2-2.6,7.6h16.2c-0.1-3.3-0.8-5.8-2.2-7.5C450.1,114.4,448,113.5,445.9,113.6z"/><path d="M487.5,97l5,0.6v43.6h-4.3l-0.5-4.1c-1,1.5-2.4,2.8-4,3.6c-1.5,0.8-3.1,1.2-4.8,1.1c-2.4,0.1-4.7-0.6-6.7-2 c-1.8-1.5-3.2-3.4-3.9-5.7c-0.9-2.7-1.3-5.6-1.3-8.4c0-2.8,0.4-5.7,1.4-8.3c0.8-2.3,2.3-4.3,4.2-5.8c1.9-1.4,4.2-2.2,6.6-2.1 c1.6,0,3.2,0.3,4.7,0.9c1.4,0.6,2.6,1.6,3.6,2.7L487.5,97z M480.5,113.5c-2.4-0.1-4.7,1-6,3c-1.4,2-2.1,5.1-2.1,9.2 c-0.1,2.3,0.2,4.5,0.9,6.7c0.4,1.6,1.3,3,2.5,4.1c1.2,0.9,2.6,1.4,4.1,1.4c1.6,0,3.2-0.5,4.5-1.5c1.2-1,2.3-2.1,3.1-3.4v-15.4 c-0.8-1.2-1.8-2.2-3.1-2.9C483.3,113.8,481.9,113.5,480.5,113.5L480.5,113.5z"/></g></svg>