<svg width="200" height="200" fill="#ffafa0" viewBox="0 0 200 200" xmlns="http://www.w3.org/2000/svg">
    <defs>
      <clipPath id="dddivided-clip1"><rect width="50%" height="100%" x="0" y="0"></rect></clipPath>
      <clipPath id="dddivided-clip2"><rect width="50%" height="100%" x="50%" y="0"></rect></clipPath>
    </defs> 
    <path fill="#ffcc51" clip-path="url(#dddivided-clip1)" transform="translate(-10,-10)" d="m30 47 46.5 48-30 6 26 5-11 7.5L80 116l-21.5 37.5 37.5-40 9 14.5 4.5-14.5 36 35-21-44.5 24.5-3-22-13.5L169.5 58 112 77l-5.5-21.5L102 77 30 47Z"/><path clip-path="url(#dddivided-clip2)" d="m30 47 46.5 48-30 6 26 5-11 7.5L80 116l-21.5 37.5 37.5-40 9 14.5 4.5-14.5 36 35-21-44.5 24.5-3-22-13.5L169.5 58 112 77l-5.5-21.5L102 77 30 47Z"/>
</svg>